<svg width="186" height="35" viewBox="0 0 186 35" fill="none" xmlns="http://www.w3.org/2000/svg">
<path d="M16.7822 4.51319C16.7822 3.67662 17.0318 2.85888 17.4993 2.1633C17.9668 1.46772 18.6313 0.925509 19.4088 0.605367C20.1862 0.285225 21.0418 0.201459 21.8671 0.364666C22.6924 0.527873 23.4505 0.93073 24.0456 1.52227C24.6406 2.11382 25.0459 2.8675 25.21 3.68799C25.3742 4.50849 25.2899 5.35898 24.9679 6.13187C24.6459 6.90476 24.1005 7.56537 23.4009 8.03014C22.7012 8.49492 21.8785 8.74296 21.037 8.74296C19.9125 8.73039 18.8376 8.28072 18.0424 7.49019C17.2472 6.69966 16.7949 5.6311 16.7822 4.51319Z" fill="#2E2B21"/>
<path d="M27.6764 22.5589C27.6764 20.0983 28.4104 17.6931 29.7854 15.6473C31.1605 13.6014 33.1149 12.007 35.4016 11.0654C37.6882 10.1238 40.2044 9.87741 42.6319 10.3574C45.0594 10.8375 47.2892 12.0223 49.0393 13.7621C50.7894 15.5019 51.9813 17.7186 52.4641 20.1318C52.947 22.5451 52.6992 25.0464 51.752 27.3196C50.8048 29.5928 49.2009 31.5358 47.1429 32.9027C45.085 34.2697 42.6656 34.9994 40.1905 34.9994C38.5425 35.016 36.9077 34.7056 35.3818 34.0863C33.856 33.4669 32.4698 32.5513 31.3044 31.3927C30.139 30.2342 29.2179 28.8562 28.5949 27.3393C27.972 25.8224 27.6597 24.1972 27.6764 22.5589ZM45.6411 22.5589C45.6165 21.4955 45.2768 20.4631 44.6646 19.5908C44.0525 18.7185 43.195 18.0452 42.1997 17.6551C41.2043 17.2651 40.1154 17.1756 39.0691 17.398C38.0229 17.6204 37.0659 18.1447 36.3181 18.9053C35.5702 19.6659 35.0647 20.6289 34.8648 21.6737C34.665 22.7186 34.7798 23.799 35.1947 24.7793C35.6096 25.7597 36.3062 26.5965 37.1973 27.1851C38.0885 27.7736 39.1345 28.0877 40.2044 28.088C40.9325 28.104 41.6561 27.9708 42.3302 27.6968C43.0043 27.4227 43.6143 27.0136 44.1224 26.4949C44.6305 25.9762 45.0257 25.3589 45.2834 24.6818C45.541 24.0046 45.6557 23.282 45.6202 22.5589H45.6411Z" fill="#2E2B21"/>
<path d="M55.0753 4.51319C55.0753 3.67662 55.3248 2.85888 55.7924 2.1633C56.2599 1.46772 56.9244 0.925509 57.7019 0.605367C58.4793 0.285225 59.3348 0.201459 60.1602 0.364666C60.9855 0.527873 61.7436 0.93073 62.3387 1.52227C62.9337 2.11382 63.339 2.8675 63.5031 3.68799C63.6673 4.50849 63.583 5.35898 63.261 6.13187C62.939 6.90476 62.3936 7.56537 61.6939 8.03014C60.9942 8.49492 60.1716 8.74296 59.3301 8.74296C58.2056 8.73039 57.1307 8.28072 56.3355 7.49019C55.5403 6.69966 55.0879 5.6311 55.0753 4.51319ZM55.7705 10.8095H62.8618V34.3082H55.7705V10.8095Z" fill="#2E2B21"/>
<path d="M89.8227 19.9049V34.3289H82.7314V20.9416C82.7314 18.025 80.8891 16.6635 78.6157 16.6635C76.0155 16.6635 74.2219 18.1701 74.2219 21.5014V34.3289H67.1305V10.8302H74.2566V12.9935C75.5289 11.2587 77.8926 10.1321 81.0142 10.1321C85.7556 10.1529 89.8227 13.5326 89.8227 19.9049Z" fill="#2E2B21"/>
<path d="M117.993 10.8094V34.3082H110.902V32.1035C109.345 33.8866 107.03 34.9717 103.859 34.9717C97.6719 34.9717 92.5619 29.567 92.5619 22.5312C92.5619 15.4954 97.6719 10.1252 103.859 10.1252C107.03 10.1252 109.345 11.2034 110.902 12.9865V10.7818L117.993 10.8094ZM110.902 22.5588C110.902 19.034 108.538 16.8224 105.278 16.8224C102.017 16.8224 99.6533 19.034 99.6533 22.5588C99.6533 26.0836 102.017 28.2884 105.278 28.2884C108.538 28.2884 110.902 26.0836 110.902 22.5588Z" fill="#2E2B21"/>
<path d="M147.686 22.5588C147.686 29.5601 142.577 34.9993 136.389 34.9993C133.219 34.9993 130.904 33.9142 129.339 32.1311V34.3359H122.227V1.44454H129.312V12.9935C130.876 11.2103 133.191 10.1321 136.361 10.1321C142.576 10.1529 147.686 15.5576 147.686 22.5588ZM140.595 22.5588C140.595 19.034 138.231 16.8224 134.971 16.8224C131.71 16.8224 129.339 19.034 129.339 22.5588C129.339 26.0836 131.703 28.2884 134.971 28.2884C138.238 28.2884 140.595 26.0836 140.595 22.5588Z" fill="#2E2B21"/>
<path d="M150.732 0H157.823V34.3013H150.732V0Z" fill="#2E2B21"/>
<path d="M174.112 28.6686C174.951 28.6932 175.787 28.5471 176.568 28.2393C177.348 27.9315 178.058 27.4684 178.652 26.8784L184.318 30.1199C182.003 33.3199 178.506 34.9579 174.015 34.9579C165.936 34.9579 160.924 29.5532 160.924 22.5174C160.924 15.4816 166.027 10.1114 173.493 10.1114C180.397 10.1114 185.5 15.4194 185.5 22.5174C185.505 23.4643 185.411 24.4092 185.222 25.3372H168.439C169.336 27.8184 171.512 28.6686 174.112 28.6686ZM178.457 20.1122C178.193 19.0082 177.547 18.0316 176.632 17.3532C175.717 16.6747 174.591 16.3376 173.452 16.4008C170.754 16.4008 168.96 17.714 168.293 20.1122H178.457Z" fill="#2E2B21"/>
<path d="M17.4913 10.8094V22.5588C17.527 23.2837 17.4118 24.0082 17.1528 24.6868C16.8939 25.3654 16.4968 25.9836 15.9864 26.5026C15.4761 27.0216 14.8635 27.4302 14.187 27.703C13.5104 27.9758 12.7845 28.1069 12.0547 28.0879C10.9734 28.1215 9.90821 27.8204 9.00651 27.2261C8.10482 26.6318 7.41109 25.7738 7.02123 24.7705L0.5 27.4106C1.64131 30.0386 3.65656 32.1968 6.208 33.5235C8.75943 34.8502 11.692 35.2648 14.5143 34.6978C17.3367 34.1308 19.8772 32.6167 21.7103 30.4092C23.5433 28.2017 24.5574 25.435 24.5827 22.5727V10.8233L17.4913 10.8094Z" fill="#2E2B21"/>
</svg>
